<svg width="211" height="48" viewBox="0 0 211 48" fill="none" xmlns="http://www.w3.org/2000/svg">
<path fill-rule="evenodd" clip-rule="evenodd" d="M190.67 41.3392L208.339 13.0678H173L190.67 41.3392Z" stroke="#250044" stroke-width="2.8"/>
<path fill-rule="evenodd" clip-rule="evenodd" d="M190.67 34.2713L208.339 6H173L190.67 34.2713Z" stroke="#250044" stroke-width="2.8"/>
<path d="M16.72 39.32C13.92 39.32 11.3867 38.7067 9.12 37.48C6.88 36.2267 5.12 34.52 3.84 32.36C2.56 30.1733 1.92 27.72 1.92 25C1.92 22.28 2.56 19.84 3.84 17.68C5.12 15.4933 6.89333 13.7867 9.16 12.56C11.4267 11.3067 13.96 10.68 16.76 10.68C18.9467 10.68 20.9467 11.0533 22.76 11.8C24.5733 12.52 26.12 13.6 27.4 15.04L24.8 17.56C22.6933 15.3467 20.0667 14.24 16.92 14.24C14.84 14.24 12.96 14.7067 11.28 15.64C9.6 16.5733 8.28 17.8667 7.32 19.52C6.38667 21.1467 5.92 22.9733 5.92 25C5.92 27.0267 6.38667 28.8667 7.32 30.52C8.28 32.1467 9.6 33.4267 11.28 34.36C12.96 35.2933 14.84 35.76 16.92 35.76C20.04 35.76 22.6667 34.64 24.8 32.4L27.4 34.92C26.12 36.36 24.56 37.4533 22.72 38.2C20.9067 38.9467 18.9067 39.32 16.72 39.32ZM49.3078 28.52C49.3078 28.8133 49.2811 29.2 49.2278 29.68H32.0278C32.2678 31.5467 33.0811 33.0533 34.4678 34.2C35.8811 35.32 37.6278 35.88 39.7078 35.88C42.2411 35.88 44.2811 35.0267 45.8278 33.32L47.9478 35.8C46.9878 36.92 45.7878 37.7733 44.3478 38.36C42.9345 38.9467 41.3478 39.24 39.5878 39.24C37.3478 39.24 35.3611 38.7867 33.6278 37.88C31.8945 36.9467 30.5478 35.6533 29.5878 34C28.6545 32.3467 28.1878 30.48 28.1878 28.4C28.1878 26.3467 28.6411 24.4933 29.5478 22.84C30.4811 21.1867 31.7478 19.9067 33.3478 19C34.9745 18.0667 36.8011 17.6 38.8278 17.6C40.8545 17.6 42.6545 18.0667 44.2278 19C45.8278 19.9067 47.0678 21.1867 47.9478 22.84C48.8545 24.4933 49.3078 26.3867 49.3078 28.52ZM38.8278 20.84C36.9878 20.84 35.4411 21.4 34.1878 22.52C32.9611 23.64 32.2411 25.1067 32.0278 26.92H45.6278C45.4145 25.1333 44.6811 23.68 43.4278 22.56C42.2011 21.4133 40.6678 20.84 38.8278 20.84ZM56.82 21.36C57.4867 20.1333 58.4733 19.2 59.78 18.56C61.0867 17.92 62.6733 17.6 64.54 17.6V21.32C64.3267 21.2933 64.0333 21.28 63.66 21.28C61.58 21.28 59.94 21.9067 58.74 23.16C57.5667 24.3867 56.98 26.1467 56.98 28.44V39H53.14V17.8H56.82V21.36ZM86.7375 28.52C86.7375 28.8133 86.7108 29.2 86.6575 29.68H69.4575C69.6975 31.5467 70.5108 33.0533 71.8975 34.2C73.3108 35.32 75.0575 35.88 77.1375 35.88C79.6708 35.88 81.7108 35.0267 83.2575 33.32L85.3775 35.8C84.4175 36.92 83.2175 37.7733 81.7775 38.36C80.3642 38.9467 78.7775 39.24 77.0175 39.24C74.7775 39.24 72.7908 38.7867 71.0575 37.88C69.3242 36.9467 67.9775 35.6533 67.0175 34C66.0842 32.3467 65.6175 30.48 65.6175 28.4C65.6175 26.3467 66.0708 24.4933 66.9775 22.84C67.9108 21.1867 69.1775 19.9067 70.7775 19C72.4042 18.0667 74.2308 17.6 76.2575 17.6C78.2842 17.6 80.0842 18.0667 81.6575 19C83.2575 19.9067 84.4975 21.1867 85.3775 22.84C86.2842 24.4933 86.7375 26.3867 86.7375 28.52ZM76.2575 20.84C74.4175 20.84 72.8708 21.4 71.6175 22.52C70.3908 23.64 69.6708 25.1067 69.4575 26.92H83.0575C82.8442 25.1333 82.1108 23.68 80.8575 22.56C79.6308 21.4133 78.0975 20.84 76.2575 20.84ZM101.81 17.6C103.863 17.6 105.703 18.0533 107.33 18.96C108.956 19.8667 110.223 21.1333 111.13 22.76C112.063 24.3867 112.53 26.2667 112.53 28.4C112.53 30.5333 112.063 32.4267 111.13 34.08C110.223 35.7067 108.956 36.9733 107.33 37.88C105.703 38.7867 103.863 39.24 101.81 39.24C100.236 39.24 98.7964 38.9333 97.4897 38.32C96.183 37.7067 95.103 36.8133 94.2497 35.64V39H90.5697V9.32H94.4097V21C95.263 19.88 96.3297 19.04 97.6097 18.48C98.8897 17.8933 100.29 17.6 101.81 17.6ZM101.49 35.88C102.85 35.88 104.063 35.5733 105.13 34.96C106.223 34.32 107.076 33.44 107.69 32.32C108.33 31.1733 108.65 29.8667 108.65 28.4C108.65 26.9333 108.33 25.64 107.69 24.52C107.076 23.3733 106.223 22.4933 105.13 21.88C104.063 21.2667 102.85 20.96 101.49 20.96C100.156 20.96 98.943 21.2667 97.8497 21.88C96.7564 22.4933 95.903 23.3733 95.2897 24.52C94.6764 25.64 94.3697 26.9333 94.3697 28.4C94.3697 29.8667 94.6764 31.1733 95.2897 32.32C95.903 33.44 96.7564 34.32 97.8497 34.96C98.943 35.5733 100.156 35.88 101.49 35.88ZM120.015 21.36C120.682 20.1333 121.669 19.2 122.975 18.56C124.282 17.92 125.869 17.6 127.735 17.6V21.32C127.522 21.2933 127.229 21.28 126.855 21.28C124.775 21.28 123.135 21.9067 121.935 23.16C120.762 24.3867 120.175 26.1467 120.175 28.44V39H116.335V17.8H120.015V21.36ZM138.649 17.6C141.582 17.6 143.822 18.32 145.369 19.76C146.942 21.2 147.729 23.3467 147.729 26.2V39H144.089V36.2C143.449 37.1867 142.529 37.9467 141.329 38.48C140.156 38.9867 138.756 39.24 137.129 39.24C134.756 39.24 132.849 38.6667 131.409 37.52C129.996 36.3733 129.289 34.8667 129.289 33C129.289 31.1333 129.969 29.64 131.329 28.52C132.689 27.3733 134.849 26.8 137.809 26.8H143.889V26.04C143.889 24.3867 143.409 23.12 142.449 22.24C141.489 21.36 140.076 20.92 138.209 20.92C136.956 20.92 135.729 21.1333 134.529 21.56C133.329 21.96 132.316 22.5067 131.489 23.2L129.889 20.32C130.982 19.44 132.289 18.7733 133.809 18.32C135.329 17.84 136.942 17.6 138.649 17.6ZM137.769 36.28C139.236 36.28 140.502 35.96 141.569 35.32C142.636 34.6533 143.409 33.72 143.889 32.52V29.56H137.969C134.716 29.56 133.089 30.6533 133.089 32.84C133.089 33.9067 133.502 34.7467 134.329 35.36C135.156 35.9733 136.302 36.28 137.769 36.28ZM153.335 9.32H157.175V39H153.335V9.32Z" fill="#250044"/>
</svg>
